<svg width="52" height="52" viewBox="0 0 52 52" fill="none" xmlns="http://www.w3.org/2000/svg">
<g clip-path="url(#clip0_3444_1294)">
<g clip-path="url(#clip1_3444_1294)">
<path d="M52 26C52 11.6406 40.3594 0 26 0C11.6406 0 0 11.6406 0 26C0 40.3594 11.6406 52 26 52C40.3594 52 52 40.3594 52 26Z" fill="#FFF8E4"/>
<path d="M15.1579 20.8697C16.0256 15.9859 20.6465 12.3313 25.9181 12.2918C31.2489 12.2524 35.9947 15.9596 36.8361 20.8435C37.2042 20.8632 37.5854 20.8632 37.9535 20.9158C38.9592 21.0735 39.6954 21.9083 39.702 22.9271C39.7151 24.9845 39.7151 27.0419 39.702 29.0927C39.6954 30.2299 38.8014 31.091 37.6314 31.1435C37.3751 31.1567 37.1253 31.1435 36.8295 31.1435C36.7769 31.3473 36.7375 31.5379 36.6849 31.722C35.4754 35.9682 32.6096 38.4529 28.3896 39.452C27.6403 39.6294 26.8515 39.6623 26.0759 39.7018C25.32 39.7412 24.7678 39.1956 24.7613 38.4857C24.7547 37.7758 25.2871 37.2303 26.043 37.2237C27.6337 37.204 29.139 36.8556 30.5062 36.0339C33.0763 34.4893 34.4632 32.2413 34.4698 29.2045C34.4698 27.1208 34.4172 25.0371 34.4829 22.9534C34.6012 18.9964 31.7551 15.7033 27.8375 14.9737C24.4457 14.3426 21.4944 15.23 19.2135 17.9118C18.0895 19.233 17.5374 20.804 17.5308 22.5459C17.5242 24.6296 17.5308 26.7133 17.5308 28.7969C17.5308 30.2825 16.6697 31.137 15.1711 31.137C14.8095 31.137 14.4414 31.1501 14.0865 31.0975C13.0348 30.9463 12.3052 30.105 12.2986 29.0401C12.2855 27.0222 12.292 25.0108 12.2986 22.9929C12.2986 21.7966 13.1728 20.9158 14.3757 20.8632C14.6321 20.85 14.8818 20.8632 15.1645 20.8632L15.1579 20.8697Z" fill="#FFB500"/>
<path d="M25.99 34.0618C24.5505 34.0618 23.2227 33.1745 22.6771 31.8467C22.3814 31.1368 22.756 30.4729 23.5317 30.4598C25.1815 30.4269 26.8314 30.4335 28.4812 30.4598C29.1057 30.4729 29.6841 31.0776 29.3292 31.8664C28.7376 33.1745 27.4361 34.0684 25.9966 34.0618H25.99Z" fill="#FFB500"/>
</g>
</g>
<defs>
<clipPath id="clip0_3444_1294">
<rect width="52" height="52" fill="white"/>
</clipPath>
<clipPath id="clip1_3444_1294">
<rect width="52" height="52" fill="white"/>
</clipPath>
</defs>
</svg>
