<svg width="29" height="21" viewBox="0 0 29 21" fill="none" xmlns="http://www.w3.org/2000/svg">
<g clip-path="url(#clip0_3436_1292)">
<g clip-path="url(#clip1_3436_1292)">
<path d="M21.5494 8.729H24.6576C26.7755 8.729 28.4961 10.4061 28.4961 12.4705V16.7558C28.4961 18.8201 26.7755 20.4972 24.6576 20.4972H21.5494C19.4315 20.4972 17.7109 18.8201 17.7109 16.7558V12.4705C17.7109 10.4061 19.4315 8.729 21.5494 8.729Z" fill="#056FEC"/>
<path d="M23.1041 7.36219C25.0496 7.36219 26.6242 5.8246 26.6242 3.93109C26.6242 2.03759 25.0496 0.5 23.1041 0.5C21.1585 0.5 19.584 2.03759 19.584 3.93109C19.584 5.8246 21.1614 7.36219 23.1041 7.36219Z" fill="#056FEC"/>
<path d="M14.6417 0.921387H2.04825C1.19525 0.921387 0.5 1.59622 0.5 2.4305V10.9499C0.5 11.7841 1.19525 12.459 2.04825 12.459H14.6417C15.4976 12.459 16.1929 11.7813 16.1929 10.9499V2.4305C16.1929 1.59622 15.4976 0.921387 14.6417 0.921387ZM8.34643 2.67253C9.41852 2.67253 10.2861 3.5182 10.2861 4.56319C10.2861 5.60818 9.41852 6.45385 8.34643 6.45385C7.27433 6.45385 6.40673 5.60818 6.40673 4.56319C6.40673 3.5182 7.27433 2.67253 8.34643 2.67253ZM11.3173 11.1777H5.37554V9.58027C5.37554 8.34166 6.40381 7.33938 7.67454 7.33938H9.01831C10.289 7.33938 11.3173 8.34166 11.3173 9.58027V11.1777Z" fill="#056FEC"/>
</g>
</g>
<defs>
<clipPath id="clip0_3436_1292">
<rect width="28" height="20" fill="white" transform="translate(0.5 0.5)"/>
</clipPath>
<clipPath id="clip1_3436_1292">
<rect width="28" height="20" fill="white" transform="translate(0.5 0.5)"/>
</clipPath>
</defs>
</svg>
