<svg width="52" height="52" viewBox="0 0 52 52" fill="none" xmlns="http://www.w3.org/2000/svg">
<g clip-path="url(#clip0_3444_1296)">
<g clip-path="url(#clip1_3444_1296)">
<path d="M52 26C52 11.6406 40.3594 0 26 0C11.6406 0 0 11.6406 0 26C0 40.3594 11.6406 52 26 52C40.3594 52 52 40.3594 52 26Z" fill="#FFF1E8"/>
<path d="M21.6895 30.9883V21.0242C21.6895 19.8502 23.0172 19.1699 23.9695 19.8527L30.9255 24.8335C31.7292 25.4079 31.7292 26.6021 30.9255 27.1765L23.9695 32.1573C23.0146 32.8401 21.6895 32.1573 21.6895 30.9858V30.9883Z" fill="#FF7100"/>
<path d="M34.7438 33.6285C34.575 33.6285 34.4037 33.5756 34.255 33.4698C33.8847 33.2002 33.8015 32.6812 34.0711 32.3084C35.4089 30.4667 36.1169 28.2874 36.1169 26.0049C36.1169 23.7223 35.4064 21.5355 34.0636 19.6913C33.794 19.321 33.8746 18.7994 34.245 18.5299C34.6153 18.2603 35.1368 18.3409 35.4064 18.7113C36.9583 20.8401 37.7771 23.362 37.7771 26.0024C37.7771 28.6427 36.9609 31.157 35.414 33.2834C35.2502 33.5076 34.9983 33.626 34.7413 33.626L34.7438 33.6285Z" fill="#FF7100"/>
<path d="M39.4553 37.1559C39.2865 37.1559 39.1152 37.103 38.9665 36.9972C38.5962 36.7276 38.5131 36.2086 38.7826 35.8358C40.8687 32.9662 41.9722 29.5676 41.9722 26.0077C41.9722 22.4478 40.8662 19.0365 38.7725 16.1645C38.503 15.7941 38.5836 15.2726 38.9539 15.003C39.3243 14.7334 39.8433 14.8141 40.1154 15.1844C42.4181 18.3437 43.635 22.085 43.635 26.0051C43.635 29.9253 42.4231 33.654 40.128 36.8108C39.9642 37.035 39.7123 37.1534 39.4553 37.1534V37.1559Z" fill="#FF7100"/>
<path d="M17.2546 33.6286C16.9976 33.6286 16.7432 33.5101 16.5819 33.2859C15.035 31.1596 14.2188 28.6427 14.2188 26.0049C14.2188 23.3671 15.0375 20.8427 16.5895 18.7138C16.8591 18.3435 17.3806 18.2603 17.7509 18.5324C18.1213 18.802 18.2044 19.3235 17.9323 19.6939C16.5895 21.5355 15.879 23.7198 15.879 26.0074C15.879 28.295 16.587 30.4692 17.9248 32.3109C18.1943 32.6813 18.1137 33.2028 17.7408 33.4724C17.5922 33.5807 17.4234 33.6311 17.2521 33.6311L17.2546 33.6286Z" fill="#FF7100"/>
<path d="M12.5449 37.156C12.2879 37.156 12.0335 37.0375 11.8722 36.8133C9.57706 33.6591 8.36523 29.9228 8.36523 26.0077C8.36523 22.0926 9.58209 18.3437 11.8848 15.187C12.1544 14.8166 12.6734 14.7335 13.0462 15.0056C13.4166 15.2751 13.4997 15.7967 13.2276 16.167C11.134 19.0391 10.028 22.4428 10.028 26.0102C10.028 29.5777 11.1315 32.9688 13.2176 35.8383C13.4871 36.2087 13.4065 36.7302 13.0336 36.9998C12.885 37.1081 12.7162 37.1585 12.5449 37.1585V37.156Z" fill="#FF7100"/>
</g>
</g>
<defs>
<clipPath id="clip0_3444_1296">
<rect width="52" height="52" fill="white"/>
</clipPath>
<clipPath id="clip1_3444_1296">
<rect width="52" height="52" fill="white"/>
</clipPath>
</defs>
</svg>
