<svg width="52" height="52" viewBox="0 0 52 52" fill="none" xmlns="http://www.w3.org/2000/svg">
<g clip-path="url(#clip0_3444_1293)">
<g clip-path="url(#clip1_3444_1293)">
<path d="M52 26C52 11.6406 40.3594 0 26 0C11.6406 0 0 11.6406 0 26C0 40.3594 11.6406 52 26 52C40.3594 52 52 40.3594 52 26Z" fill="#E2F8FF"/>
<path d="M33.7664 13.4409H18.2319C15.2432 13.4409 12.8203 15.8638 12.8203 18.8525V32.8049C12.8203 35.7936 15.2432 38.2165 18.2319 38.2165H33.7664C36.7552 38.2165 39.1781 35.7936 39.1781 32.8049V18.8525C39.1781 15.8638 36.7552 13.4409 33.7664 13.4409Z" fill="#00AEFF"/>
<path d="M22.8681 31.5853C22.0922 31.5853 21.4648 30.958 21.4648 30.1821V21.4751C21.4648 20.6991 22.0922 20.0718 22.8681 20.0718C23.6441 20.0718 24.2714 20.6991 24.2714 21.4751V30.1821C24.2714 30.958 23.6441 31.5853 22.8681 31.5853Z" fill="#E2F8FF"/>
<path d="M29.1318 31.5853C28.3558 31.5853 27.7285 30.958 27.7285 30.1821V21.4751C27.7285 20.6991 28.3558 20.0718 29.1318 20.0718C29.9078 20.0718 30.5351 20.6991 30.5351 21.4751V30.1821C30.5351 30.958 29.9078 31.5853 29.1318 31.5853Z" fill="#E2F8FF"/>
</g>
</g>
<defs>
<clipPath id="clip0_3444_1293">
<rect width="52" height="52" fill="white"/>
</clipPath>
<clipPath id="clip1_3444_1293">
<rect width="52" height="52" fill="white"/>
</clipPath>
</defs>
</svg>
