<svg width="52" height="52" viewBox="0 0 52 52" fill="none" xmlns="http://www.w3.org/2000/svg">
<g clip-path="url(#clip0_3444_1295)">
<g clip-path="url(#clip1_3444_1295)">
<path d="M52 26C52 11.6406 40.3594 0 26 0C11.6406 0 0 11.6406 0 26C0 40.3594 11.6406 52 26 52C40.3594 52 52 40.3594 52 26Z" fill="#E4EBF8"/>
<path d="M20.3791 13.2115C20.9207 13.3123 21.4624 13.4181 22.0041 13.5088C22.4021 13.5743 22.8178 13.728 23.2058 13.5391C23.5106 13.3904 23.7827 13.1687 24.0523 12.9596C24.4201 12.6699 24.7552 12.3348 25.1382 12.0652C26.1006 11.3875 26.9572 11.4127 27.8969 12.1282C28.2521 12.4003 28.6023 12.685 28.9172 13.0024C29.4992 13.5869 30.1618 13.723 30.9453 13.5139C31.4165 13.3879 31.9052 13.3123 32.3915 13.2644C33.3891 13.1662 34.1273 13.592 34.538 14.509C34.7647 15.0179 34.9713 15.542 35.1174 16.0761C35.324 16.8243 35.8354 17.1922 36.5358 17.4013C37.0019 17.5423 37.4655 17.7086 37.9089 17.9102C38.957 18.3863 39.3727 19.2001 39.1787 20.3313C39.088 20.8604 38.9973 21.392 38.8889 21.9185C38.7882 22.4048 38.8738 22.8356 39.1963 23.216C39.5591 23.6418 39.9269 24.0625 40.2796 24.4958C40.5517 24.8309 40.7583 25.2038 40.8465 25.6321C40.9699 26.2342 40.8062 26.7759 40.456 27.2546C40.1537 27.6652 39.801 28.0381 39.4886 28.4387C39.282 28.7032 39.0653 28.9703 38.9242 29.2701C38.7403 29.658 38.899 30.0712 38.9595 30.4718C39.0401 31.011 39.1736 31.5451 39.2064 32.0842C39.2643 33.0315 38.8033 33.7017 37.9492 34.0796C37.4227 34.3139 36.8734 34.5053 36.3217 34.6792C35.7019 34.8757 35.324 35.2737 35.13 35.8885C34.9663 36.4075 34.7874 36.9239 34.5707 37.4203C34.0769 38.5464 33.2632 38.8739 32.1244 38.7152C31.5928 38.6422 31.0637 38.5363 30.5372 38.428C30.0434 38.3272 29.6075 38.4205 29.2246 38.7505C28.8013 39.1158 28.3831 39.4861 27.9473 39.8363C27.6172 40.1009 27.2494 40.3075 26.8261 40.3881C26.1081 40.5267 25.511 40.247 24.9694 39.8212C24.5209 39.466 24.0951 39.083 23.6542 38.7152C23.2763 38.4003 22.8455 38.3298 22.3719 38.4255C21.8781 38.5263 21.3843 38.6144 20.8854 38.6951C19.5426 38.9092 18.7339 38.4456 18.2401 37.1759C18.0587 36.7073 17.8949 36.2311 17.7438 35.7524C17.5624 35.178 17.1568 34.8631 16.6075 34.6767C16.0533 34.4877 15.499 34.2987 14.9599 34.0695C14.4232 33.8402 14.0075 33.4573 13.8161 32.8829C13.6851 32.4873 13.6775 32.0817 13.7455 31.6736C13.8362 31.1369 13.9345 30.6003 14.0378 30.0662C14.126 29.6127 14.063 29.1995 13.7632 28.8367C13.3853 28.3782 12.9922 27.9348 12.6194 27.4737C12.3573 27.1487 12.1634 26.786 12.0727 26.3728C11.9391 25.7606 12.1256 25.2164 12.4732 24.7352C12.7705 24.322 13.1207 23.9466 13.4482 23.5536C13.5541 23.4251 13.6599 23.2991 13.7657 23.1706C14.0554 22.8129 14.1234 22.4073 14.0378 21.9613C13.942 21.46 13.8463 20.9586 13.7632 20.4548C13.5415 19.0716 14.0025 18.2705 15.3101 17.7716C15.824 17.5751 16.348 17.4013 16.8645 17.2123C17.2979 17.0536 17.5573 16.7311 17.711 16.3079C17.9302 15.7057 18.1242 15.0935 18.3837 14.509C18.7591 13.6675 19.4192 13.2216 20.3715 13.209L20.3791 13.2115Z" fill="#003BA7"/>
<path d="M26.4659 36.0876C20.9057 36.0876 16.3809 31.5628 16.3809 26.0026C16.3809 20.4423 20.9057 15.9175 26.4659 15.9175C32.0262 15.9175 36.551 20.4423 36.551 26.0026C36.551 31.5628 32.0262 36.0876 26.4659 36.0876Z" fill="#E4EBF8"/>
<path d="M26.4663 34.8355C31.346 34.8355 35.3018 30.8797 35.3018 26C35.3018 21.1203 31.346 17.1646 26.4663 17.1646C21.5866 17.1646 17.6309 21.1203 17.6309 26C17.6309 30.8797 21.5866 34.8355 26.4663 34.8355Z" fill="#003BA7"/>
<path d="M24.4508 29.8322C24.4508 29.8322 24.4307 29.8322 24.4206 29.8322C24.2518 29.8246 24.0931 29.749 23.9797 29.6205L21.1403 26.4159C20.9111 26.1564 20.9338 25.7609 21.1933 25.5291C21.4528 25.2973 21.8483 25.3225 22.0801 25.582L24.4911 28.3054L30.8878 22.337C31.1423 22.1002 31.5378 22.1153 31.7747 22.3673C32.0115 22.6217 31.9964 23.0173 31.7444 23.2541L24.8766 29.6634C24.7607 29.7717 24.607 29.8322 24.4483 29.8322H24.4508Z" fill="#E4EBF8"/>
</g>
</g>
<defs>
<clipPath id="clip0_3444_1295">
<rect width="52" height="52" fill="white"/>
</clipPath>
<clipPath id="clip1_3444_1295">
<rect width="52" height="52" fill="white"/>
</clipPath>
</defs>
</svg>
